<?xml version="1.0" encoding="UTF-8" standalone="no"?>
<!-- Created with Inkscape (http://www.inkscape.org/) -->

<svg
   xmlns:dc="http://purl.org/dc/elements/1.1/"
   xmlns:cc="http://creativecommons.org/ns#"
   xmlns:rdf="http://www.w3.org/1999/02/22-rdf-syntax-ns#"
   xmlns:svg="http://www.w3.org/2000/svg"
   xmlns="http://www.w3.org/2000/svg"
   xmlns:sodipodi="http://sodipodi.sourceforge.net/DTD/sodipodi-0.dtd"
   xmlns:inkscape="http://www.inkscape.org/namespaces/inkscape"
   width="105mm"
   height="74mm"
   viewBox="0 0 372.04724 262.20472"
   id="svg5940"
   version="1.1"
   inkscape:version="0.91 r13725"
   sodipodi:docname="e-bike.svg">
  <defs
     id="defs5942" />
  <sodipodi:namedview
     id="base"
     pagecolor="#ffffff"
     bordercolor="#666666"
     borderopacity="1.0"
     inkscape:pageopacity="0.0"
     inkscape:pageshadow="2"
     inkscape:zoom="1.4"
     inkscape:cx="103.05297"
     inkscape:cy="182.50611"
     inkscape:document-units="px"
     inkscape:current-layer="layer1"
     showgrid="false"
     inkscape:window-width="1920"
     inkscape:window-height="1017"
     inkscape:window-x="-8"
     inkscape:window-y="-8"
     inkscape:window-maximized="1" />
  <metadata
     id="metadata5945">
    <rdf:RDF>
      <cc:Work
         rdf:about="">
        <dc:format>image/svg+xml</dc:format>
        <dc:type
           rdf:resource="http://purl.org/dc/dcmitype/StillImage" />
        <dc:title></dc:title>
      </cc:Work>
    </rdf:RDF>
  </metadata>
  <g
     inkscape:label="Laag 1"
     inkscape:groupmode="layer"
     id="layer1"
     transform="translate(0,-790.15748)">
    <path
       style="opacity:1;fill:#000000;fill-opacity:1;fill-rule:nonzero;stroke:none;stroke-width:6.9829998;stroke-miterlimit:4;stroke-dasharray:none;stroke-dashoffset:0;stroke-opacity:1"
       d="m 63.975843,996.1158 c -20.90232,-2.60842 -36.71689,-16.16327 -42.519965,-36.44412 -1.681513,-5.8766 -1.791429,-17.74314 -0.220282,-23.78208 4.565455,-17.54821 17.921999,-31.01448 35.627775,-35.92046 5.716878,-1.58405 18.74251,-1.46415 24.636105,0.22678 16.911203,4.85199 30.266814,18.27046 34.393674,34.55546 0.55528,2.19107 1.20162,4.06912 1.43638,4.17346 0.23476,0.10433 0.42381,3.30556 0.42009,7.11382 -0.025,25.92277 -18.079632,46.70246 -43.328256,49.86831 -4.645741,0.58257 -7.063539,0.63089 -10.445521,0.20883 z m 14.16537,-12.12076 c 6.791003,-1.73684 11.882382,-4.69421 17.149489,-9.96132 5.224258,-5.22422 8.057688,-10.07444 9.981148,-17.08544 1.63005,-5.94157 1.37593,-15.68519 -0.5566,-21.34323 -9.125024,-26.71604 -42.85042,-34.66017 -62.629987,-14.75271 -4.277488,4.30514 -7.493802,9.44865 -9.225089,14.75271 -1.504355,4.60884 -2.03673,14.49655 -1.052071,19.53988 2.636874,13.50568 13.825872,25.25328 27.452982,28.82353 5.608931,1.46952 13.19637,1.48022 18.880128,0.0263 l 0,0 z"
       id="path5804"
       inkscape:connector-curvature="0" />
    <path
       style="opacity:1;fill:#000000;fill-opacity:1;fill-rule:nonzero;stroke:none;stroke-width:6.9829998;stroke-miterlimit:4;stroke-dasharray:none;stroke-dashoffset:0;stroke-opacity:1"
       d="m 174.52507,895.34143 c 0.63881,-0.009 3.28132,0.0738 6.09268,0.16501 0.37014,0.012 5.30451,-18.58803 5.69087,-19.26461 0.5385,-0.94301 -10.29471,-2.2605 -15.77932,-3.65833 -3.47916,-0.88671 -3.61571,-2.14584 -1.14224,-2.27356 3.17452,-0.16393 38.96044,2.84477 39.41456,3.08475 1.07541,0.5683 -16.20417,2.95994 -15.66509,2.97207 -1.59117,5.67955 -3.81611,14.96853 -5.12398,20.21125 -0.41588,1.66706 36.45554,40.67481 45.98124,53.70159 2.07486,2.83737 -2.30423,10.82286 -2.32952,10.88944 -0.0564,0.14166 -61.38698,2.08682 -62.34663,1.07275 -3.243,-3.42699 -3.87283,8.76051 0.11603,-3.69747 0.5236,-1.63528 57.65354,-1.78186 57.56605,-3.54614 -0.29901,-6.02971 -14.09145,-19.89589 -20.18034,-27.06135 -10.24387,-12.05511 -21.1261,-24.00641 -21.25669,-23.61991 -6.96354,20.6108 -8.91206,47.27321 -18.22018,61.01141 -2.36983,-0.62011 -7.40648,-1.57507 -9.22051,-2.51721 -5.52063,-2.86726 -63.808526,-63.32089 -64.134666,-63.02586 -0.225921,0.20435 -0.245105,-11.82391 8.436096,-0.51822 14.04748,18.29435 61.24241,58.18492 62.7795,58.99143 0.75447,0.39583 -1.68827,3.00008 -1.44827,2.81741 0.66684,-0.5075 1.27064,-4.28301 1.39788,-4.91747 1.00296,-11.72021 11.79689,-41.25199 13.39767,-51.08279 0.284,-1.74412 -1.18293,-3.24894 -1.47181,-3.25555 -27.19637,2.08944 -54.44312,-2.93745 -81.56232,-2.3742 -0.436599,1.7e-4 -19.034411,32.89554 -23.107643,48.10277 -1.578629,4.48352 -1.103891,3.64966 -1.485587,3.52762 -0.342002,-0.1093 -1.49058,0.79938 -3.463058,-0.72083 -0.787586,-0.13469 22.485384,-51.66745 22.181606,-51.7495 0.351998,-0.25577 4.920586,-17.15364 5.272534,-17.40951 l -6.34266,0.14767 -7.856657,-3.82945 -2.353009,-3.55583 5.250199,0.75567 16.231223,2.32401 -0.140701,4.24945 -0.660856,1.08044 -2.382614,11.10792 c 27.352133,2.09613 50.215893,2.92563 77.866213,1.86513 z"
       id="path5888"
       inkscape:connector-curvature="0"
       sodipodi:nodetypes="cssssscsscssssscssssscscccscccccccccccc" />
    <g
       id="g5896"
       transform="matrix(0.28169326,0,0,0.28169326,439.67964,841.6754)">
      <path
         inkscape:connector-curvature="0"
         id="path5804-2"
         d="m -985.09871,475.28056 c -21.00329,-2.62107 -36.89419,-16.24128 -42.72529,-36.62006 -1.6895,-5.90499 -1.8,-17.82881 -0.2212,-23.8969 4.5874,-17.63292 18.0084,-31.16419 35.79973,-36.09385 5.74437,-1.5917 18.833,-1.47122 24.75504,0.22787 16.99275,4.87543 30.41282,18.35865 34.5597,34.72228 0.5579,2.20163 1.20743,4.08875 1.4433,4.19358 0.23586,0.10486 0.4259,3.32153 0.42211,7.14817 -0.0253,26.04792 -18.16687,46.92791 -43.53744,50.10909 -4.66822,0.58533 -7.09771,0.6339 -10.49595,0.20982 z m 14.23379,-12.17931 c 6.82375,-1.74524 11.93967,-4.71685 17.23227,-10.00937 5.24945,-5.24949 8.09655,-10.1231 10.02929,-17.16798 1.63797,-5.97022 1.38257,-15.76086 -0.5593,-21.44622 -9.16904,-26.84501 -43.05728,-34.82747 -62.93224,-14.82393 -4.2981,4.32594 -7.5301,9.49427 -9.2697,14.82393 -1.5116,4.6311 -2.0466,14.56652 -1.0572,19.63422 2.6496,13.57084 13.8927,25.37514 27.58557,28.96267 5.636,1.47662 13.26011,1.48735 18.97131,0.0266 l 0,3e-5 z"
         style="opacity:1;fill:#000000;fill-opacity:1;fill-rule:nonzero;stroke:none;stroke-width:6.9829998;stroke-miterlimit:4;stroke-dasharray:none;stroke-dashoffset:0;stroke-opacity:1" />
      <path
         transform="translate(0,520.86614)"
         inkscape:connector-curvature="0"
         id="path5894"
         d="m -990.28837,-58.340674 c -11.67683,-3.140071 -22.28273,-13.593073 -25.91063,-25.537049 -1.2667,-4.170489 -1.441,-6.124451 -1.1176,-12.52966 0.4607,-9.123917 1.9323,-13.396907 6.9824,-20.274307 6.192,-8.43245 14.67994,-13.4292 25.56548,-15.05014 15.02241,-2.23695 31.23648,6.74498 38.39415,21.26878 2.71194,5.50288 2.8047,5.9382 3.04391,14.285719 0.21065,7.350883 0.0219,9.276951 -1.29045,13.171721 -3.93104,11.665974 -13.77508,21.108159 -25.69307,24.644222 -4.80994,1.4271 -14.70616,1.437364 -19.97419,0.02071 z"
         style="opacity:1;fill:#ffffff;fill-opacity:1;fill-rule:nonzero;stroke:none;stroke-width:6.9829998;stroke-miterlimit:4;stroke-dasharray:none;stroke-dashoffset:0;stroke-opacity:1" />
    </g>
    <rect
       style="opacity:1;fill:#ffffff;fill-opacity:1;fill-rule:nonzero;stroke:none;stroke-width:6.9829998;stroke-miterlimit:4;stroke-dasharray:none;stroke-dashoffset:0;stroke-opacity:1"
       id="rect5903"
       width="56.910633"
       height="85.935059"
       x="274.26987"
       y="893.41595" />
    <path
       style="opacity:1;fill:#000000;fill-opacity:1;fill-rule:nonzero;stroke:none;stroke-width:6.9829998;stroke-miterlimit:4;stroke-dasharray:none;stroke-dashoffset:0;stroke-opacity:1"
       d="m 357.73467,947.69173 c -0.42078,-2.88762 -0.88659,-4.27225 -2.46819,-7.33652 -2.33061,-4.51548 -8.02823,-9.41187 -13.22744,-11.36737 -3.05125,-1.14762 -2.92769,-0.5729 -2.92769,-13.6201 0,-12.86684 -0.23885,-15.11828 -2.00814,-18.92796 -3.01776,-6.4979 -8.96315,-10.12143 -16.65593,-10.15126 -9.18954,-0.0357 -16.22012,5.63003 -18.12138,14.60326 -0.42776,2.01892 -0.53118,6.64475 -0.53631,23.98782 -0.006,21.10652 -0.0204,21.52396 -0.79631,23.60455 -1.10967,2.97528 -4.81401,6.67505 -7.62716,7.61778 -4.13085,1.38433 -8.43794,0.64066 -11.41172,-1.97039 -1.29452,-1.13652 -1.35855,-1.15062 -5.21707,-1.15062 l -3.90647,0 0.66114,1.16362 c 0.3636,0.63998 1.71184,2.28834 2.99609,3.66316 4.11114,4.40106 9.39706,6.33204 15.06965,5.50523 7.42496,-1.08218 13.28773,-6.0129 16.38808,-13.78261 0.51876,-1.30009 0.61865,-4.40418 0.78409,-24.36253 l 0.18958,-22.87262 0.84046,-1.82982 c 2.49555,-5.4331 8.75657,-8.28142 14.52058,-6.60576 1.70176,0.49471 2.55361,1.04074 4.20923,2.69808 3.38643,3.38996 3.43116,3.61429 3.58381,17.97303 0.0715,6.72953 0.0358,12.61109 -0.0794,13.07011 -0.14645,0.58352 -1.00623,1.23446 -2.85823,2.16389 -1.4568,0.73114 -3.42006,1.89552 -4.36281,2.58756 -4.341,3.18659 -7.76647,8.52356 -8.8948,13.85835 -0.65493,3.09662 -0.74042,11.96829 -0.13256,13.76042 0.99313,2.92799 3.16054,4.57261 6.55635,4.9748 l 1.80481,0.21376 0,5.2795 c 0,2.92119 0.16831,5.59406 0.37679,5.98369 0.48012,0.89705 2.23273,1.80946 3.47576,1.80946 0.57448,0 1.39167,-0.43047 2.03098,-1.06978 l 1.06973,-1.06969 0,-5.51755 0,-5.51763 5.67241,0 5.67242,0 0,5.408 c 0,5.94403 0.18324,6.56711 2.17408,7.39171 1.40441,0.58173 2.77003,0.24025 3.89548,-0.97415 0.85184,-0.91921 0.8837,-1.14952 0.8837,-6.38954 l 0,-5.43602 1.37235,-0.008 c 3.21018,-0.0187 6.32388,-2.64536 7.02797,-5.92832 0.44626,-2.08087 0.43324,-8.29216 -0.024,-11.42956 l 0,0 z"
       id="path5907"
       inkscape:connector-curvature="0" />
    <path
       style="opacity:1;fill:#000000;fill-opacity:1;fill-rule:nonzero;stroke:none;stroke-width:6.9829998;stroke-miterlimit:4;stroke-dasharray:none;stroke-dashoffset:0;stroke-opacity:1"
       d="m 226.66862,1000.0907 c -20.90231,-2.60841 -36.71688,-16.16317 -42.51996,-36.44411 -1.68151,-5.8766 -1.79143,-17.74314 -0.22028,-23.78208 4.56545,-17.5482 17.922,-31.01446 35.62777,-35.92044 5.71688,-1.58406 18.74252,-1.46416 24.63611,0.22677 16.9112,4.85201 30.26681,18.27046 34.39367,34.55546 0.55528,2.19106 1.20162,4.06912 1.43638,4.17345 0.23477,0.10435 0.42381,3.30556 0.42009,7.11387 -0.0251,25.92272 -18.07963,46.70241 -43.32825,49.86835 -4.64575,0.58253 -7.06354,0.63083 -10.44553,0.20873 z m 14.16537,-12.12074 c 6.79101,-1.73685 11.88239,-4.69421 17.14949,-9.96132 5.22426,-5.22422 8.05769,-10.07444 9.98115,-17.08545 1.63004,-5.94157 1.37593,-15.68515 -0.55659,-21.34322 -9.12504,-26.71604 -42.85043,-34.66016 -62.63,-14.75271 -4.27748,4.30515 -7.4938,9.44865 -9.22508,14.75271 -1.50436,4.60884 -2.03673,14.49654 -1.05207,19.53988 2.63688,13.50568 13.82587,25.25327 27.45298,28.82353 5.60894,1.46951 13.19637,1.48021 18.88012,0.0263 l 0,0 z"
       id="path5804-4"
       inkscape:connector-curvature="0" />
  </g>
</svg>
