<?xml version="1.0" encoding="UTF-8" standalone="no"?>
<!-- Created with Inkscape (http://www.inkscape.org/) -->

<svg
   xmlns:dc="http://purl.org/dc/elements/1.1/"
   xmlns:cc="http://creativecommons.org/ns#"
   xmlns:rdf="http://www.w3.org/1999/02/22-rdf-syntax-ns#"
   xmlns:svg="http://www.w3.org/2000/svg"
   xmlns="http://www.w3.org/2000/svg"
   xmlns:sodipodi="http://sodipodi.sourceforge.net/DTD/sodipodi-0.dtd"
   xmlns:inkscape="http://www.inkscape.org/namespaces/inkscape"
   width="105mm"
   height="74mm"
   viewBox="0 0 372.04724 262.20472"
   id="svg5940"
   version="1.1"
   inkscape:version="0.91 r13725"
   sodipodi:docname="e-bike_alt.svg">
  <defs
     id="defs5942" />
  <sodipodi:namedview
     id="base"
     pagecolor="#ffffff"
     bordercolor="#666666"
     borderopacity="1.0"
     inkscape:pageopacity="0.0"
     inkscape:pageshadow="2"
     inkscape:zoom="1.4"
     inkscape:cx="-61.589887"
     inkscape:cy="182.50611"
     inkscape:document-units="px"
     inkscape:current-layer="layer1"
     showgrid="false"
     inkscape:window-width="1920"
     inkscape:window-height="1017"
     inkscape:window-x="-8"
     inkscape:window-y="-8"
     inkscape:window-maximized="1" />
  <metadata
     id="metadata5945">
    <rdf:RDF>
      <cc:Work
         rdf:about="">
        <dc:format>image/svg+xml</dc:format>
        <dc:type
           rdf:resource="http://purl.org/dc/dcmitype/StillImage" />
        <dc:title></dc:title>
      </cc:Work>
    </rdf:RDF>
  </metadata>
  <g
     inkscape:label="Laag 1"
     inkscape:groupmode="layer"
     id="layer1"
     transform="translate(0,-790.15748)">
    <path
       style="opacity:1;fill:#000000;fill-opacity:1;fill-rule:nonzero;stroke:none;stroke-width:6.9829998;stroke-miterlimit:4;stroke-dasharray:none;stroke-dashoffset:0;stroke-opacity:1"
       d="m 76.316669,1017.4081 c -25.082211,-3.13 -44.059262,-19.3955 -51.022793,-43.73196 -2.017769,-7.05176 -2.149665,-21.29128 -0.264332,-28.53785 5.478421,-21.05737 21.505908,-37.21652 42.752354,-43.10356 6.860097,-1.90082 22.490498,-1.75694 29.562651,0.27213 20.292981,5.82225 36.319351,21.92405 41.271471,41.4656 0.66632,2.62922 1.44191,4.88283 1.72361,5.00804 0.28171,0.12519 0.50856,3.96658 0.5041,8.53639 -0.03,31.10661 -21.69506,56.04171 -51.992722,59.84061 -5.574762,0.6991 -8.476053,0.757 -12.534339,0.2506 z m 16.998056,-14.5446 c 8.149015,-2.0842 14.258535,-5.6329 20.578915,-11.9533 6.26897,-6.26893 9.66901,-12.08906 11.97711,-20.50207 1.95601,-7.12972 1.65108,-18.8218 -0.66791,-25.61129 -10.94978,-32.05851 -51.419329,-41.59125 -75.154267,-17.70285 -5.132868,5.16605 -8.992357,11.33812 -11.069854,17.70285 -1.805185,5.53048 -2.44402,17.39546 -1.262456,23.44732 3.164176,16.20645 16.590667,30.30324 32.942826,34.58744 6.730563,1.7634 15.835282,1.7762 22.655636,0.032 l 0,0 z"
       id="path5804"
       inkscape:connector-curvature="0" />
    <path
       style="opacity:1;fill:#000000;fill-opacity:1;fill-rule:nonzero;stroke:none;stroke-width:6.9829998;stroke-miterlimit:4;stroke-dasharray:none;stroke-dashoffset:0;stroke-opacity:1"
       d="m 208.97271,896.4816 c 0.76656,-0.0108 3.9375,0.0886 7.31105,0.19801 0.44416,0.0144 6.36527,-22.30513 6.82889,-23.11701 0.64619,-1.13158 -12.35337,-2.71253 -18.93475,-4.38989 -4.1749,-1.06403 -4.33875,-2.57495 -1.37066,-2.72821 3.80934,-0.19671 46.75146,3.41364 47.29639,3.70161 1.29047,0.68195 -19.44456,3.55185 -18.79767,3.56641 -1.90936,6.8153 -4.57923,17.96182 -6.14864,24.25294 -0.49904,2.00043 43.74565,48.80866 55.17623,64.44044 2.48977,3.40477 -2.76501,12.98713 -2.79536,13.06703 -0.0677,0.16999 -73.6627,2.50413 -74.81425,1.28727 -3.89151,-4.11229 -4.64729,10.51237 0.13923,-4.43686 0.62831,-1.96229 69.18267,-2.13819 69.07769,-4.25527 -0.35881,-7.23549 -16.90936,-23.87453 -24.21586,-32.47288 -12.29236,-14.4658 -25.35074,-28.80704 -25.50745,-28.34325 -8.35605,24.7324 -10.69422,56.72656 -21.86371,73.21202 -2.84373,-0.74411 -8.88757,-1.89004 -11.06436,-3.02058 -6.62461,-3.44063 -76.56848,-75.98333 -76.95984,-75.62931 -0.2711,0.24522 -0.29412,-14.18836 10.12308,-0.62185 16.85659,21.95272 73.48921,69.82031 75.33368,70.7881 0.90534,0.47499 -2.02588,3.60002 -1.73788,3.38082 0.80019,-0.60899 1.52473,-5.1395 1.67741,-5.90083 1.20353,-14.06393 14.15595,-49.50126 16.07684,-61.29795 0.34079,-2.09289 -1.41948,-3.89864 -1.76613,-3.90657 -32.6349,2.50727 -65.33025,-3.52486 -97.87255,-2.84897 -0.52391,2e-4 -22.840772,39.47374 -27.728539,57.722 -1.894312,5.3801 -1.324639,4.37949 -1.782664,4.23305 -0.410393,-0.13116 -1.788655,0.95923 -4.155574,-0.86498 -0.945082,-0.16162 26.981847,-61.99952 26.617317,-62.09798 0.42239,-0.30692 5.90457,-20.5839 6.3269,-20.89093 l -7.61102,0.1772 -9.427773,-4.59524 -2.823546,-4.2669 6.300095,0.90679 19.477024,2.78874 -0.16884,5.09923 -0.79301,1.2965 -2.85907,13.3292 c 32.82181,2.51529 60.2577,3.51067 93.43732,2.2381 z"
       id="path5888"
       inkscape:connector-curvature="0"
       sodipodi:nodetypes="cssssscsscssssscssssscscccscccccccccccc" />
    <g
       id="g5896"
       transform="matrix(0.33802419,0,0,0.33802419,527.15093,832.08383)">
      <path
         inkscape:connector-curvature="0"
         id="path5804-2"
         d="m -985.09871,475.28056 c -21.00329,-2.62107 -36.89419,-16.24128 -42.72529,-36.62006 -1.6895,-5.90499 -1.8,-17.82881 -0.2212,-23.8969 4.5874,-17.63292 18.0084,-31.16419 35.79973,-36.09385 5.74437,-1.5917 18.833,-1.47122 24.75504,0.22787 16.99275,4.87543 30.41282,18.35865 34.5597,34.72228 0.5579,2.20163 1.20743,4.08875 1.4433,4.19358 0.23586,0.10486 0.4259,3.32153 0.42211,7.14817 -0.0253,26.04792 -18.16687,46.92791 -43.53744,50.10909 -4.66822,0.58533 -7.09771,0.6339 -10.49595,0.20982 z m 14.23379,-12.17931 c 6.82375,-1.74524 11.93967,-4.71685 17.23227,-10.00937 5.24945,-5.24949 8.09655,-10.1231 10.02929,-17.16798 1.63797,-5.97022 1.38257,-15.76086 -0.5593,-21.44622 -9.16904,-26.84501 -43.05728,-34.82747 -62.93224,-14.82393 -4.2981,4.32594 -7.5301,9.49427 -9.2697,14.82393 -1.5116,4.6311 -2.0466,14.56652 -1.0572,19.63422 2.6496,13.57084 13.8927,25.37514 27.58557,28.96267 5.636,1.47662 13.26011,1.48735 18.97131,0.0266 l 0,3e-5 z"
         style="opacity:1;fill:#000000;fill-opacity:1;fill-rule:nonzero;stroke:none;stroke-width:6.9829998;stroke-miterlimit:4;stroke-dasharray:none;stroke-dashoffset:0;stroke-opacity:1" />
      <path
         transform="translate(0,520.86614)"
         inkscape:connector-curvature="0"
         id="path5894"
         d="m -990.28837,-58.340674 c -11.67683,-3.140071 -22.28273,-13.593073 -25.91063,-25.537049 -1.2667,-4.170489 -1.441,-6.124451 -1.1176,-12.52966 0.4607,-9.123917 1.9323,-13.396907 6.9824,-20.274307 6.192,-8.43245 14.67994,-13.4292 25.56548,-15.05014 15.02241,-2.23695 31.23648,6.74498 38.39415,21.26878 2.71194,5.50288 2.8047,5.9382 3.04391,14.285719 0.21065,7.350883 0.0219,9.276951 -1.29045,13.171721 -3.93104,11.665974 -13.77508,21.108159 -25.69307,24.644222 -4.80994,1.4271 -14.70616,1.437364 -19.97419,0.02071 z"
         style="opacity:1;fill:#ffffff;fill-opacity:1;fill-rule:nonzero;stroke:none;stroke-width:6.9829998;stroke-miterlimit:4;stroke-dasharray:none;stroke-dashoffset:0;stroke-opacity:1" />
    </g>
    <path
       style="opacity:1;fill:#000000;fill-opacity:1;fill-rule:nonzero;stroke:none;stroke-width:6.9829998;stroke-miterlimit:4;stroke-dasharray:none;stroke-dashoffset:0;stroke-opacity:1"
       d="m 315.17919,830.054 c -3.46506,0.50492 -5.12658,1.06388 -8.80362,2.96176 -5.41845,2.79667 -11.29399,9.63365 -13.64053,15.87256 -1.37712,3.66142 -0.68747,3.51315 -16.34375,3.51315 -15.43986,0 -18.14152,0.28661 -22.71303,2.40971 -7.79731,3.62123 -12.14544,10.75554 -12.18124,19.98666 -0.0428,11.0272 6.75588,19.4637 17.52351,21.74516 2.42265,0.5133 7.97352,0.6374 28.78473,0.64356 25.32725,0.007 25.82816,0.0245 28.32481,0.95555 3.57026,1.33157 8.00988,5.77668 9.14113,9.15238 1.66116,4.95691 0.76878,10.1253 -2.36441,13.69375 -1.3638,1.55339 -1.38071,1.63023 -1.38071,6.26035 l 0,4.68765 1.39631,-0.79335 c 0.76796,-0.43631 2.74594,-2.05416 4.39569,-3.59522 5.28115,-4.93326 7.59827,-11.27622 6.60612,-18.08317 -1.29858,-8.90975 -7.21531,-15.94491 -16.53875,-19.66525 -1.56007,-0.62249 -5.2849,-0.74236 -29.23437,-0.94088 l -27.44652,-0.22749 -2.19573,-1.00853 c -6.51957,-2.99459 -9.93748,-10.50765 -7.92673,-17.4243 0.59364,-2.04207 1.24886,-3.06426 3.23762,-5.05096 4.06786,-4.06363 4.33705,-4.1173 21.56714,-4.30048 8.07526,-0.0858 15.13297,-0.043 15.68378,0.0953 0.70021,0.17574 1.48132,1.20745 2.59661,3.4298 0.87735,1.74812 2.27457,4.10398 3.105,5.23525 3.82382,5.20908 10.22804,9.31955 16.62964,10.67352 3.71586,0.7859 14.36162,0.88848 16.51213,0.15907 3.5135,-1.19173 5.487,-3.79256 5.96962,-7.86744 l 0.25651,-2.16573 6.33525,0 c 3.50535,0 6.71272,-0.20196 7.18026,-0.45213 1.07644,-0.57613 2.17131,-2.67922 2.17131,-4.17082 0,-0.68936 -0.51655,-1.66997 -1.28371,-2.43712 l -1.2836,-1.28365 -6.62091,0 -6.621,0 0,-6.80673 0,-6.80675 6.48945,0 c 7.13267,0 7.88035,-0.21989 8.86985,-2.60884 0.69806,-1.68525 0.28829,-3.32396 -1.16895,-4.67447 -1.10303,-1.02218 -1.3794,-1.06041 -7.66728,-1.06041 l -6.52307,0 -0.01,-1.64679 c -0.0224,-3.85212 -3.17436,-7.58848 -7.11382,-8.43337 -2.49699,-0.5355 -9.95037,-0.51987 -13.71516,0.0288 l 0,0 z"
       id="path5907"
       inkscape:connector-curvature="0" />
    <path
       style="opacity:1;fill:#000000;fill-opacity:1;fill-rule:nonzero;stroke:none;stroke-width:6.9829998;stroke-miterlimit:4;stroke-dasharray:none;stroke-dashoffset:0;stroke-opacity:1"
       d="m 271.54354,1022.1779 c -25.08219,-3.1301 -44.05925,-19.3954 -51.02278,-43.73198 -2.01777,-7.05176 -2.14967,-21.29128 -0.26433,-28.53784 5.47841,-21.05736 21.50591,-37.21651 42.75235,-43.10355 6.86009,-1.90083 22.49051,-1.75695 29.56265,0.27212 20.29298,5.82228 36.31935,21.92405 41.27146,41.46561 0.66632,2.62921 1.44192,4.88283 1.72362,5.00802 0.28172,0.12522 0.50856,3.96658 0.5041,8.53645 -0.0301,31.10657 -21.69506,56.04157 -51.99272,59.84067 -5.57477,0.699 -8.47605,0.757 -12.53435,0.2505 z m 16.99806,-14.5446 c 8.14903,-2.0842 14.25854,-5.6329 20.57892,-11.9533 6.26897,-6.26893 9.66901,-12.08906 11.97711,-20.50208 1.956,-7.12973 1.65107,-18.82175 -0.6679,-25.61128 -10.9498,-32.05852 -51.41934,-41.59125 -75.15428,-17.70285 -5.13286,5.16606 -8.99236,11.33812 -11.06984,17.70285 -1.8052,5.53048 -2.44402,17.39545 -1.26246,23.44732 3.16418,16.20644 16.59067,30.30324 32.94282,34.58744 6.73058,1.7634 15.83529,1.7762 22.65563,0.032 l 0,0 z"
       id="path5804-4"
       inkscape:connector-curvature="0" />
  </g>
</svg>
